<?xml version="1.0" encoding="UTF-8"?><svg id="Layer_1" xmlns="http://www.w3.org/2000/svg" viewBox="0 0 256 256"><defs><style>.cls-1{fill:none;stroke:#fdfefe;stroke-miterlimit:10;stroke-width:15.05px;}.cls-2{fill:#fdfefe;}</style></defs><rect class="cls-1" x="8.57" y="21.69" width="239.39" height="226.81"/><g><g><rect class="cls-2" x="48.32" y="123.75" width="37.05" height="37.05"/><rect class="cls-2" x="109.21" y="123.75" width="37.05" height="37.05"/><rect class="cls-2" x="170.1" y="123.75" width="37.05" height="37.05"/></g><g><rect class="cls-2" x="48.32" y="175.83" width="37.05" height="37.05"/><rect class="cls-2" x="109.21" y="175.83" width="37.05" height="37.05"/><rect class="cls-2" x="170.1" y="175.83" width="37.05" height="37.05"/></g></g><path class="cls-2" d="M199.41,14.09v-3.58c0-5.78-4.73-10.51-10.51-10.51h-1.61c-5.78,0-10.51,4.73-10.51,10.51v3.58H77.63v-3.58c0-5.78-4.73-10.51-10.51-10.51h-1.61c-5.78,0-10.51,4.73-10.51,10.51v3.58H8.04V96.48H247.43V14.09h-48.03ZM66.33,79c-12.67,0-22.93-10.27-22.93-22.93,0-8.55,4.69-16.01,11.63-19.95v12.96c0,5.78,4.73,10.51,10.51,10.51h1.61c5.78,0,10.51-4.73,10.51-10.51v-12.96c6.94,3.94,11.63,11.4,11.63,19.95,0,12.67-10.27,22.93-22.93,22.93Zm121.77,1.13c-12.67,0-22.93-10.27-22.93-22.93,0-8.55,4.69-16.01,11.63-19.95v11.83c0,5.78,4.73,10.51,10.51,10.51h1.61c5.78,0,10.51-4.73,10.51-10.51v-11.83c6.94,3.94,11.63,11.4,11.63,19.95,0,12.67-10.27,22.93-22.93,22.93Z"/></svg>