<?xml version="1.0" encoding="UTF-8"?><svg id="Layer_1" xmlns="http://www.w3.org/2000/svg" viewBox="0 0 256 256"><defs><style>.cls-1{fill:#e6e7e8;}</style></defs><path class="cls-1" d="M250.68,84.31c-.51,22.34-16.97,44.08-28.74,56.83l-.02,.03-11.58,11.34s-.05,.04-.07,.06l-.06,.05-82.21,80.45L45.78,152.6l-.06-.05s-.04-.04-.07-.06l-11.58-11.34-.02-.03c-11.77-12.74-28.23-34.49-28.74-56.83-.77-33.88,27.48-61.36,61.37-61.36s47.56,18.11,61.32,45.91c.07,.15-.07,.15,0,0,14.02-29.72,28.65-45.91,61.33-45.91s62.13,27.48,61.36,61.36Z"/></svg>