<?xml version="1.0" encoding="UTF-8"?><svg id="Layer_1" xmlns="http://www.w3.org/2000/svg" viewBox="0 0 256 256"><defs><style>.cls-1{fill:#7f1518;}.cls-2{fill:#7f1416;}.cls-3{stroke-linecap:round;}.cls-3,.cls-4{fill:none;stroke:#7f1416;stroke-width:10px;}.cls-5{opacity:.8;}</style></defs><g><rect class="cls-4" x="31.62" y="5.67" width="192.77" height="244.66" rx="57.27" ry="57.27"/><g class="cls-5"><line class="cls-3" x1="77.06" y1="68.1" x2="178.94" y2="68.1"/><path class="cls-1" d="M135.57,133h-59.85c-2.02,0-3.66-2.24-3.66-5s1.64-5,3.66-5h65.68"/><path class="cls-2" d="M113.44,192.9h-36.29c-2.76,0-5-2.24-5-5s2.24-5,5-5h43.37"/></g></g><g class="cls-5"><polygon class="cls-1" points="170.33 109.57 138.65 162.54 155.72 172.63 187.4 119.67 170.33 109.57"/><path class="cls-1" d="M188.69,98.28c-4.72-2.77-10.8-1.18-13.57,3.54l-1.24,2.12,17.07,10.09,1.28-2.18c2.77-4.73,1.18-10.8-3.54-13.57Z"/><path class="cls-1" d="M135.38,168.16c.67,4.65,1.43,10.57,2.26,15.13,4.39-1.42,9.68-3.47,14.85-5.1l-17.11-10.03Z"/></g></svg>