<svg xmlns="http://www.w3.org/2000/svg" viewBox="0 0 71 71"><defs><style>.cls-1{fill:#fcfcfc;}.cls-2,.cls-3{fill:none;stroke:#fcfcfc;stroke-miterlimit:10;}.cls-2{stroke-width:3.01px;}.cls-3{stroke-width:4.52px;}</style></defs><g id="Wireframe_Large" data-name="Wireframe Large"><g id="Calendar_Wireframe" data-name="Calendar Wireframe"><g id="Handles"><rect class="cls-1" x="45.87" y="0.94" width="5.08" height="16.94" rx="2.54"/><rect class="cls-1" x="21.4" y="0.94" width="5.08" height="16.94" rx="2.54"/></g><g id="Small_rectangles" data-name="Small rectangles"><rect class="cls-2" x="16.93" y="35.29" width="6.89" height="6.89"/><rect class="cls-2" x="32.73" y="35.31" width="6.89" height="6.89"/><rect class="cls-2" x="48.53" y="35.32" width="6.89" height="6.88"/><rect class="cls-2" x="16.91" y="50.23" width="6.89" height="6.89"/><rect class="cls-2" x="32.71" y="50.26" width="6.89" height="6.89"/><rect class="cls-2" x="48.51" y="50.27" width="6.89" height="6.88"/></g><path class="cls-3" d="M68.1,25.24H3V54.11A13.89,13.89,0,0,0,16.85,68H54.27A13.89,13.89,0,0,0,68.16,54.11V23Z"/><path class="cls-1" d="M66.68,14.78c-2-4.57-5.75-7.65-10.07-7.65H14.51c-4.32,0-8.09,3.08-10.07,7.64A18.49,18.49,0,0,0,3,22.11H3v3.31H68.1V22.13h.06A18.54,18.54,0,0,0,66.68,14.78Zm-42.8,8.35a7.94,7.94,0,1,1,7.93-7.93A7.93,7.93,0,0,1,23.88,23.13Zm24.47,0a7.94,7.94,0,1,1,7.93-7.93A7.93,7.93,0,0,1,48.35,23.13Z"/><path class="cls-3" d="M66.68,14.78c-2-4.57-5.75-7.65-10.07-7.65H14.51c-4.32,0-8.09,3.08-10.07,7.64A18.49,18.49,0,0,0,3,22.11H3v3.31H68.1V22.13h.06A18.54,18.54,0,0,0,66.68,14.78Zm-42.8,8.35a7.94,7.94,0,1,1,7.93-7.93A7.93,7.93,0,0,1,23.88,23.13Zm24.47,0a7.94,7.94,0,1,1,7.93-7.93A7.93,7.93,0,0,1,48.35,23.13Z"/></g></g></svg>