<svg xmlns="http://www.w3.org/2000/svg" viewBox="0 0 268.25 218.75"><defs><style>.cls-1{fill:#fff;}</style></defs><g id="Layer_3" data-name="Layer 3"><path class="cls-1" d="M195.78-.08c3.79,0,7.83.18,12.15.54,26.28,2.2,56.67,22.86,60.38,62.44V76.07C264.86,114,231.54,160.68,134.17,219.3,36.8,160.68,3.48,114,0,76.07V62.9C3.74,23.32,34.13,2.66,60.41.46,64.73.1,68.77-.08,72.56-.08c30.36,0,44.93,11.27,61.61,28.33C150.85,11.19,165.41-.08,195.78-.08m0,25.19c-17.45,0-24.73,4.59-39.13,19.33l-22.47,23-22.49-23C97.28,29.7,90,25.11,72.56,25.11c-2.86,0-6,.14-9.3.42-12.13,1-31,12.1-33.88,38.45V75C33,108.09,68.17,146.14,134.17,188.24,200.17,146.13,235.4,108.09,239,75V64c-2.88-26.35-21.76-37.43-33.89-38.45-3.32-.28-6.44-.42-9.3-.42Z"/></g></svg>