<svg id="Layer_1" data-name="Layer 1" xmlns="http://www.w3.org/2000/svg" viewBox="0 0 315.64 347.5"><defs><style>.cls-1{fill:#333;}</style></defs><circle class="cls-1" cx="157.64" cy="74.65" r="75"/><path class="cls-1" d="M315.17,250.65c-.83-12.08-3.81-55.46-39.6-83.05-19.4-15-40-18.78-50.7-19.95a158.48,158.48,0,0,1-65.27,15,158.39,158.39,0,0,1-69.12-15c-10.71,1.17-31.31,5-50.71,19.95C4,195.19,1,238.57.17,250.65c-1.16,16.91-2.91,42.39,14,65,25.48,34.07,71.37,32.27,76.31,32H224.87c4.93.27,50.82,2.07,76.3-32C318.09,293,316.33,267.56,315.17,250.65Z"/></svg>